<svg width="100" height="100" viewBox="0 0 100 100" fill="none" xmlns="http://www.w3.org/2000/svg">
<rect width="100" height="100" rx="23.3333" fill="#FFDD00"/>
<path d="M71.8189 28.6589L71.7641 28.6266L71.6372 28.5879C71.6883 28.631 71.7522 28.656 71.8189 28.6589V28.6589Z" fill="#0D0C22"/>
<path d="M72.6185 34.3691L72.5571 34.3864L72.6185 34.3691Z" fill="#0D0C22"/>
<path d="M71.843 28.648C71.8352 28.647 71.8276 28.6452 71.8202 28.6426C71.8197 28.6476 71.8197 28.6527 71.8202 28.6578C71.8285 28.6567 71.8364 28.6533 71.843 28.648V28.648Z" fill="#0D0C22"/>
<path d="M71.8198 28.6575H71.8281V28.6523L71.8198 28.6575Z" fill="#0D0C22"/>
<path d="M72.5693 34.3574L72.6619 34.3047L72.6963 34.2853L72.7275 34.252C72.6688 34.2772 72.6152 34.313 72.5693 34.3574V34.3574Z" fill="#0D0C22"/>
<path d="M71.9793 28.7815L71.889 28.6955L71.8276 28.6621C71.8606 28.7203 71.9151 28.7632 71.9793 28.7815V28.7815Z" fill="#0D0C22"/>
<path d="M49.2513 84.1992C49.1791 84.2304 49.1159 84.2792 49.0674 84.3412L49.1244 84.3046C49.1631 84.2691 49.2179 84.2272 49.2513 84.1992Z" fill="#0D0C22"/>
<path d="M62.4496 81.6015C62.4496 81.5198 62.4098 81.5348 62.4195 81.8252C62.4195 81.8015 62.4292 81.7778 62.4335 81.7553C62.4388 81.7036 62.4431 81.6531 62.4496 81.6015Z" fill="#0D0C22"/>
<path d="M61.0799 84.1992C61.0077 84.2304 60.9445 84.2792 60.896 84.3412L60.953 84.3046C60.9917 84.2691 61.0466 84.2272 61.0799 84.1992Z" fill="#0D0C22"/>
<path d="M39.9568 84.8169C39.902 84.7692 39.8349 84.7379 39.7632 84.7266C39.8213 84.7545 39.8793 84.7825 39.918 84.804L39.9568 84.8169Z" fill="#0D0C22"/>
<path d="M37.8654 82.8132C37.8568 82.7285 37.8309 82.6464 37.7891 82.5723C37.8187 82.6495 37.8434 82.7285 37.8633 82.8089L37.8654 82.8132Z" fill="#0D0C22"/>
<path d="M27.2935 34.1953L27.343 34.2416L27.3753 34.261C27.3504 34.2363 27.323 34.2142 27.2935 34.1953V34.1953Z" fill="#0D0C22"/>
<path d="M71.4444 28.5964L71.3896 28.5641L71.2627 28.5254C71.3138 28.5685 71.3777 28.5935 71.4444 28.5964V28.5964Z" fill="#0D0C22"/>
<path d="M72.2439 34.3066L72.1826 34.3238L72.2439 34.3066Z" fill="#0D0C22"/>
<path d="M71.4685 28.5855C71.4607 28.5845 71.4531 28.5827 71.4457 28.5801C71.4452 28.5851 71.4452 28.5902 71.4457 28.5953C71.454 28.5942 71.4619 28.5908 71.4685 28.5855V28.5855Z" fill="#0D0C22"/>
<path d="M71.4453 28.595H71.4535V28.5898L71.4453 28.595Z" fill="#0D0C22"/>
<path d="M72.1948 34.2948L72.2873 34.2421L72.3217 34.2228L72.3529 34.1895C72.2943 34.2147 72.2407 34.2504 72.1948 34.2948V34.2948Z" fill="#0D0C22"/>
<path d="M71.6048 28.719L71.5144 28.6329L71.4531 28.5996C71.4861 28.6577 71.5405 28.7006 71.6048 28.719V28.719Z" fill="#0D0C22"/>
<path d="M48.8768 84.1367C48.8046 84.1679 48.7414 84.2167 48.6929 84.2787L48.7499 84.2421C48.7886 84.2066 48.8434 84.1647 48.8768 84.1367Z" fill="#0D0C22"/>
<path d="M62.0751 81.539C62.0751 81.4573 62.0353 81.4723 62.045 81.7627C62.045 81.739 62.0547 81.7153 62.059 81.6928C62.0643 81.6411 62.0686 81.5906 62.0751 81.539Z" fill="#0D0C22"/>
<path d="M60.7054 84.1367C60.6332 84.1679 60.57 84.2167 60.5215 84.2787L60.5785 84.2421C60.6172 84.2066 60.672 84.1647 60.7054 84.1367Z" fill="#0D0C22"/>
<path d="M39.5822 84.7544C39.5275 84.7067 39.4604 84.6754 39.3887 84.6641C39.4467 84.692 39.5048 84.72 39.5435 84.7415L39.5822 84.7544Z" fill="#0D0C22"/>
<path d="M37.4909 82.7507C37.4823 82.666 37.4563 82.5839 37.4146 82.5098C37.4442 82.587 37.4689 82.666 37.4888 82.7464L37.4909 82.7507Z" fill="#0D0C22"/>
<path d="M51.5393 46.927C48.668 48.1561 45.4095 49.5499 41.1864 49.5499C39.4198 49.5463 37.6617 49.304 35.96 48.8293L38.8808 78.8169C38.9841 80.0703 39.5551 81.239 40.4803 82.0909C41.4055 82.9428 42.6173 83.4156 43.8749 83.4154C43.8749 83.4154 48.0163 83.6304 49.3982 83.6304C50.8855 83.6304 55.3452 83.4154 55.3452 83.4154C56.6026 83.4153 57.8141 82.9424 58.7391 82.0905C59.6641 81.2387 60.2349 80.0702 60.3383 78.8169L63.4666 45.6795C62.0686 45.202 60.6577 44.8848 59.0671 44.8848C56.3163 44.8837 54.0999 45.8311 51.5393 46.927Z" fill="white"/>
<path d="M26.9189 34.1328L26.9684 34.1791L27.0007 34.1984C26.9758 34.1737 26.9484 34.1517 26.9189 34.1328V34.1328Z" fill="#0D0C22"/>
<path d="M76.9729 31.3656L76.5331 29.147C76.1384 27.1564 75.2426 25.2755 73.1994 24.5561C72.5444 24.326 71.8013 24.227 71.2991 23.7506C70.7969 23.2742 70.6485 22.5343 70.5324 21.8482C70.3173 20.5889 70.1151 19.3286 69.8946 18.0714C69.7043 16.9906 69.5537 15.7765 69.058 14.785C68.4127 13.4536 67.0739 12.6751 65.7425 12.1599C65.0603 11.9053 64.3641 11.6898 63.6573 11.5147C60.3311 10.6372 56.8339 10.3145 53.4119 10.1307C49.3047 9.90401 45.1864 9.9723 41.0889 10.335C38.0391 10.6124 34.8268 10.948 31.9286 12.0029C30.8694 12.389 29.7778 12.8525 28.9723 13.6709C27.9841 14.6764 27.6614 16.2314 28.383 17.4853C28.896 18.3758 29.7649 19.0049 30.6865 19.4211C31.887 19.9573 33.1407 20.3653 34.4268 20.6384C38.0079 21.4299 41.7169 21.7407 45.3755 21.873C49.4304 22.0366 53.4919 21.904 57.5275 21.4762C58.5255 21.3665 59.5217 21.2349 60.5161 21.0815C61.6872 20.9019 62.4389 19.3705 62.0937 18.3037C61.6807 17.0283 60.5709 16.5336 59.3159 16.7261C59.1309 16.7551 58.947 16.782 58.7621 16.8089L58.6287 16.8283C58.2036 16.882 57.7784 16.9322 57.3533 16.9788C56.4751 17.0735 55.5947 17.1509 54.7121 17.2111C52.7355 17.3488 50.7536 17.4122 48.7727 17.4154C46.8262 17.4154 44.8786 17.3606 42.9365 17.2326C42.0503 17.1745 41.1663 17.1007 40.2845 17.0111C39.8834 16.9691 39.4833 16.925 39.0833 16.8756L38.7026 16.8272L38.6198 16.8154L38.2251 16.7584C37.4186 16.6368 36.612 16.497 35.8141 16.3282C35.7335 16.3103 35.6615 16.2655 35.6099 16.2012C35.5583 16.1369 35.5301 16.0569 35.5301 15.9744C35.5301 15.8919 35.5583 15.8119 35.6099 15.7476C35.6615 15.6832 35.7335 15.6384 35.8141 15.6206H35.8291C36.5206 15.4733 37.2175 15.3474 37.9165 15.2377C38.1495 15.2012 38.3832 15.1653 38.6176 15.1302H38.6241C39.0618 15.1012 39.5016 15.0227 39.9372 14.971C43.7265 14.5769 47.5384 14.4425 51.3461 14.5688C53.1947 14.6226 55.0423 14.7312 56.8823 14.9183C57.278 14.9592 57.6716 15.0022 58.0652 15.0506C58.2158 15.0689 58.3674 15.0904 58.519 15.1087L58.8245 15.1528C59.7149 15.2854 60.6007 15.4464 61.4818 15.6356C62.7873 15.9195 64.4639 16.012 65.0446 17.4423C65.2295 17.8961 65.3134 18.4005 65.4156 18.8769L65.5457 19.4845C65.5491 19.4954 65.5516 19.5065 65.5532 19.5178C65.8608 20.9517 66.1687 22.3856 66.477 23.8195C66.4996 23.9254 66.5001 24.0348 66.4786 24.141C66.457 24.2471 66.4138 24.3477 66.3516 24.4363C66.2895 24.525 66.2097 24.6 66.1173 24.6565C66.0249 24.713 65.9218 24.7498 65.8146 24.7647H65.806L65.6178 24.7905L65.4317 24.8153C64.8424 24.892 64.2524 24.9637 63.6616 25.0304C62.498 25.163 61.3326 25.2777 60.1655 25.3745C57.8462 25.5673 55.5222 25.6939 53.1936 25.7541C52.0071 25.7856 50.8209 25.8003 49.6351 25.7982C44.9152 25.7945 40.1993 25.5201 35.5108 24.9766C35.0032 24.9164 34.4956 24.8518 33.988 24.7862C34.3816 24.8368 33.702 24.7475 33.5643 24.7282C33.2417 24.683 32.9191 24.636 32.5965 24.5873C31.5135 24.4249 30.437 24.2249 29.3563 24.0496C28.0497 23.8345 26.8 23.942 25.6182 24.5873C24.648 25.1182 23.8628 25.9322 23.3673 26.9209C22.8576 27.9748 22.706 29.1223 22.478 30.2547C22.25 31.3871 21.8951 32.6055 22.0295 33.768C22.3188 36.2769 24.0728 38.3159 26.5957 38.7719C28.9691 39.202 31.3554 39.5504 33.7482 39.8473C43.1476 40.9984 52.6434 41.1362 62.0722 40.2581C62.84 40.1864 63.6068 40.1082 64.3724 40.0236C64.6116 39.9973 64.8536 40.0249 65.0807 40.1043C65.3079 40.1836 65.5144 40.3128 65.6851 40.4823C65.8558 40.6518 65.9865 40.8574 66.0675 41.0839C66.1485 41.3104 66.1779 41.5522 66.1533 41.7916L65.9146 44.1123C65.4335 48.8018 64.9525 53.4909 64.4714 58.1796C63.9695 63.1036 63.4645 68.0271 62.9561 72.9503C62.8128 74.3369 62.6694 75.723 62.526 77.1089C62.3883 78.4736 62.369 79.8813 62.1098 81.2298C61.7012 83.3505 60.2655 84.6528 58.1706 85.1292C56.2514 85.566 54.2908 85.7953 52.3226 85.8132C50.1406 85.825 47.9597 85.7282 45.7777 85.7401C43.4483 85.753 40.5953 85.5379 38.7972 83.8043C37.2175 82.2816 36.9992 79.8974 36.7841 77.8359C36.4973 75.1065 36.213 72.3775 35.9313 69.6488L34.3504 54.476L33.3277 44.6586C33.3105 44.4962 33.2933 44.336 33.2772 44.1725C33.1546 43.0014 32.3255 41.855 31.0188 41.9142C29.9004 41.9637 28.6293 42.9143 28.7605 44.1725L29.5187 51.4509L31.0866 66.5065C31.5332 70.783 31.9788 75.0602 32.4233 79.3382C32.5093 80.1577 32.59 80.9793 32.6803 81.7987C33.1718 86.2767 36.5916 88.6899 40.8265 89.3695C43.2999 89.7674 45.8336 89.8492 48.3436 89.89C51.5612 89.9417 54.811 90.0653 57.976 89.4825C62.6658 88.6221 66.1845 85.4906 66.6867 80.633C66.8301 79.2307 66.9735 77.828 67.1169 76.4249C67.5936 71.7849 68.0697 67.1446 68.545 62.5038L70.1 47.3407L70.813 40.3914C70.8486 40.0468 70.9941 39.7228 71.228 39.4674C71.462 39.2119 71.772 39.0386 72.1121 38.973C73.4532 38.7116 74.735 38.2653 75.6889 37.2448C77.2074 35.6198 77.5096 33.5013 76.9729 31.3656ZM26.5269 32.8647C26.5473 32.855 26.5097 33.0303 26.4935 33.112C26.4903 32.9883 26.4968 32.8786 26.5269 32.8647ZM26.657 33.8712C26.6678 33.8637 26.7 33.9067 26.7334 33.9583C26.6828 33.911 26.6506 33.8755 26.6559 33.8712H26.657ZM26.785 34.0401C26.8312 34.1186 26.856 34.1681 26.785 34.0401V34.0401ZM27.042 34.2487H27.0484C27.0484 34.2562 27.0603 34.2638 27.0646 34.2713C27.0575 34.263 27.0495 34.2554 27.0409 34.2487H27.042ZM72.0498 33.9368C71.568 34.395 70.8421 34.6079 70.1248 34.7144C62.0808 35.9081 53.9195 36.5124 45.7873 36.2457C39.9673 36.0468 34.2085 35.4005 28.4465 34.5864C27.8819 34.5068 27.27 34.4036 26.8818 33.9874C26.1505 33.2023 26.5097 31.6215 26.7 30.673C26.8742 29.8041 27.2076 28.6459 28.2411 28.5222C29.8542 28.3329 31.7275 29.0136 33.3234 29.2556C35.2448 29.5488 37.1734 29.7836 39.1091 29.96C47.3703 30.7128 55.7703 30.5956 63.995 29.4944C65.4941 29.2929 66.9878 29.0588 68.4762 28.7921C69.8022 28.5545 71.2722 28.1082 72.0734 29.4814C72.6229 30.4171 72.6961 31.6688 72.6111 32.7259C72.5849 33.1865 72.3837 33.6197 72.0487 33.9368H72.0498Z" fill="#0D0C22"/>
</svg>
